<svg xmlns="http://www.w3.org/2000/svg" width="250" height="250" fill="none" viewBox="0 0 250 250">
<!-- SVG created with Arrow, by QuiverAI (https://quiver.ai) -->
  <path d="m9.19 51.71c0-24.59 19.92-44.51 44.51-44.51h140.3c24.58 0 44.51 19.92 45.93 43.11v145.8c-1.43 23.19-21.35 47.54-50.26 47.54h-132.7c-25.9 0-49.23-22.85-49.23-49.42l1.5-142.5z" fill="url(#paint0_linear_4_1782)" stroke="url(#paint1_linear_4_1782)" stroke-miterlimit="10" stroke-width="4.404"/>
  <path d="m12.06 194.2v-142.5c0-22.98 18.66-42.23 41.64-42.23h140.3c22.98 0 42.23 19.25 42.23 42.23v141.4c0 22.98-20.94 44.68-46.56 44.68h-132.7c-22.98 0-44.86-20.57-44.86-43.55z" fill="url(#paint2_linear_4_1782)" opacity=".5"/>
  <path d="m124.2 10.31-13.92 7.56 4.2 9.46-2.2 9.68 10.13 6.61 10.22-6.43 1.46-10.43 3.1-9.19-12.99-7.26z" fill="url(#paint3_radial_4_1782)" opacity=".3"/>
  <path d="m199.8 39.76-4.48 2.54 1.7 3.72-0.96 3.97 4.18 2.87 4.25-2.94 0.68-4.05 1.26-3.68-6.63-2.43z" fill="url(#paint4_radial_4_1782)" opacity=".3"/>
  <path d="m209.2 52.07-2.64 2.11 1.16 2.66 2.07 1.87 3.01-1.3 0.47-3.3-4.07-2.04z" fill="url(#paint5_radial_4_1782)" opacity=".3"/>
  <path d="m236 133.4-3.13 3.49 0.77 5.38 4.06 2.05 0.66-4.81v-4.85l-2.36-1.26z" fill="url(#paint6_radial_4_1782)" opacity=".3"/>
  <path d="m224.2 181.6-1.69 2.82 2.04 2.89 2.74-0.61 1.56-2.82-2.19-2.63-2.46 0.35z" opacity=".3" stroke="#fff" stroke-miterlimit="10" stroke-width="1.381"/>
  <path d="m182.9 30.91-1.69 2.82 1.29 2.82 3.1-0.14 1.13-3.17-1.36-2.68-2.47 0.35z" opacity=".3" stroke="#fff" stroke-miterlimit="10" stroke-width="1.381"/>
  <path d="m174.9 148-1.7 2.82 1.3 2.82 3.09-0.14 1.13-3.17-1.36-2.67-2.46 0.34z" opacity=".3" stroke="#fff" stroke-miterlimit="10" stroke-width="1.381"/>
  <path d="m198.7 173.1-1.7 2.82 1.3 2.82 3.1-0.14 1.13-3.17-1.36-2.68-2.47 0.35z" opacity=".3" stroke="#fff" stroke-miterlimit="10" stroke-width="1.381"/>
  <path d="m224.3 146.6-1.47 1.64 0.66 1.73 2.09 0.23 1.26-1.57-0.81-2.03h-1.73z" fill="#fff" opacity=".3" stroke="#fff" stroke-miterlimit="10" stroke-width=".2763"/>
  <path d="m55.69 35.46-2.54 2.35 1.55 3.35 4.06 1.03 1.1-2.78-1.33-3.71-2.84-0.24z" opacity=".3" stroke="#fff" stroke-miterlimit="10" stroke-width="1.381"/>
  <path d="m154.8 33.36c17.41 5.82 23.81 12.01 33.9 22.1l32.5-34.38" opacity=".3" stroke="#fff" stroke-miterlimit="10" stroke-width="1.381"/>
  <path d="m166.5 51.71 19.31 15.41 14.57-19.1" opacity=".3" stroke="#fff" stroke-miterlimit="10" stroke-width="1.381"/>
  <path d="m221.8 67.12h15.9v-16.81l-12.89-14.16-10.36 14.37 5.63 16.6h1.72z" opacity=".3" stroke="#fff" stroke-miterlimit="10" stroke-width="1.381"/>
  <path d="m12.18 55.06h27.74l14.15-14.95" opacity=".3" stroke="#fff" stroke-miterlimit="10" stroke-width="1.381"/>
  <path d="m12.06 61.92h29.64l21.71 24.36 1.46 23.13" opacity=".3" stroke="#fff" stroke-miterlimit="10" stroke-width="2.072"/>
  <path d="m12.06 134h19.71l1.2 0.18c2.09 10.24 4.06 20.59 9.73 28.94" opacity=".3" stroke="#fff" stroke-miterlimit="10" stroke-width="1.381"/>
  <path d="m179.9 180.8c14.99-12.98 26.97-34.7 26.27-57.28" opacity=".3" stroke="#fff" stroke-miterlimit="10" stroke-width="1.381"/>
  <path d="m216.3 109.9c2.58 15.5 0.59 39.07-12.47 60.1l-25.47-17.99" opacity=".3" stroke="#fff" stroke-miterlimit="10" stroke-width="1.381"/>
  <path d="m203.6 169.7h32.99" opacity=".3" stroke="#fff" stroke-miterlimit="10" stroke-width=".9209"/>
  <path d="m96.1 32.21c-29.69 9.15-54.4 30.21-62.67 69.97" opacity=".3" stroke="#fff" stroke-miterlimit="10" stroke-width="1.381"/>
  <path d="m87.27 48.23c-23.2 10.66-44.06 34.73-44.06 75.59 0 6.19 0.74 11.62 2.16 16.55" opacity=".3" stroke="#fff" stroke-miterlimit="10" stroke-width="1.381"/>
  <path d="m65.57 88.01-0.5 21.11" opacity=".3" stroke="#fff" stroke-miterlimit="10" stroke-width="1.381"/>
  <path d="m65.46 116.8c2.94 0 4.16-2.68 3.45-4.9-1.08-3.44-5.67-3.13-6.76 0-0.79 2.5 0.83 4.9 3.31 4.9z" opacity=".3" stroke="#fff" stroke-miterlimit="10" stroke-width="1.381"/>
  <path d="m31.91 107.8c-0.7 2.48 1.17 4.43 3.36 4.43 2.64 0 3.64-2.62 2.64-4.59-1.43-2.95-5.3-2.32-6 0.16z" opacity=".3" stroke="#fff" stroke-miterlimit="10" stroke-width="1.381"/>
  <path d="m12.06 71.97c8.73 0 15.79 7.38 15.13 15.92-0.8 9.28-8.1 14.39-15.13 14.29" opacity=".3" stroke="#fff" stroke-miterlimit="10" stroke-width="4.404"/>
  <path d="m73.34 190c-7.52-0.82-8.01-2.06-2.44-2.96 13.01-2.29 32.67-0.95 53.28-1.25 23.65 0 47 1.3 54.67 3.1 3.92 0.9-1.01 2.77-13.19 3.93-8.2 0.8-21.61 1.09-37.69 0.8-21.46-0.38-43.81-2.42-54.63-3.62z" fill="url(#paint7_radial_4_1782)"/>
  <path d="m124.7 18.99h-0.05c-5.17 0-7.24 4.42-7.24 7.32 0 3.37 1.86 6.32 4.63 7.57v5.24l-0.23 0.08c-4.12 1.19-6.61 3.91-6.61 7.28v1.54h18.6v-1.54c0-3.36-2.48-6.08-6.6-7.28l-0.23-0.08v-5.01c3.03-1.03 5.09-4.07 5.09-7.63 0-3.77-2.88-7.49-7.36-7.49z" fill="url(#paint8_linear_4_1782)" stroke="#0B4870" stroke-miterlimit="10" stroke-width="1.807"/>
  <path d="m124.4 30.56c3.15 0 4.76-2.45 4.76-4.47 0-2.38-1.82-4.31-4.31-4.31-2.61 0-4.2 1.99-4.2 3.93 0 2.37 1.68 4.85 3.75 4.85z" fill="url(#paint9_radial_4_1782)" stroke="#11B9D4" stroke-miterlimit="10" stroke-width="1.381"/>
  <path d="m74.09 124.3c2.62-6.67 4.86-9.93 12.1-10.96l8.72 0.36-1.3 19.7-4.8 2.82c-5.71 0.41-9.96-1.58-13.37-6.33l-1.35-5.59z" fill="url(#paint10_linear_4_1782)" stroke="#0B4870" stroke-miterlimit="10" stroke-width="2.202"/>
  <path d="m73.31 126.1-5.4 6.56 2.47 8.06 5.68 2.97 2.47-5.12-1.2-6.31-4.02-6.16z" fill="#0B4870" stroke="#0B4870" stroke-miterlimit="10" stroke-width="1.807"/>
  <path d="m51.86 158.2c-1.95-11.38 3.81-25.4 13.82-26.82 6.73-0.95 11.31 8.34 12.97 13.6 1.76 5.94-1.74 13.27-6.54 18.7l-7.99 1.58-11.21-4.81-1.05-2.25z" fill="url(#paint11_linear_4_1782)" stroke="#0B4870" stroke-miterlimit="10" stroke-width="2.202"/>
  <path d="m53.71 158.9-9.53 10.64c-1.1 1.23-0.49 4.8 2.11 12.26 1.22 3.1 6.95 5.91 8.27 5.91 0.87 0 0.66-2.58 1.02-7.02l-2.64-2.98 0.5-4.84 2.7-2.82 2.39-2.44-2.33-6.19-2.49-2.52z" fill="url(#paint12_linear_4_1782)" stroke="#0B4870" stroke-miterlimit="10" stroke-width="2.202"/>
  <path d="m66.25 171.7 3.17 3.69-4.35 5.56-1.95 7.94c3.69 0 7.1-1.62 8.9-4.2l5.95-9.53c0.84-1.22-0.92-3.46-1.91-4.94l-3.81-4.23-6 5.71z" fill="url(#paint13_linear_4_1782)" stroke="#0B4870" stroke-miterlimit="10" stroke-width="2.202"/>
  <path d="m56.14 162.1c0 4.44 3.21 6.89 6.6 6.89 4.38 0 7.48-3.95 7.48-7.61 0-4.22-4.3-6.21-7.61-6.21-3.93 0-6.47 2.65-6.47 6.93z" fill="url(#paint14_linear_4_1782)" stroke="#0B4870" stroke-miterlimit="10" stroke-width="1.381"/>
  <path d="m58.97 162.1c0 2.79 1.8 4.09 3.74 4.09 2.78 0 4.62-2.34 4.62-4.58 0-2.52-2.22-3.72-4.19-3.72-2.37 0-4.17 1.48-4.17 4.21z" fill="url(#paint15_linear_4_1782)" stroke="#0B4870" stroke-miterlimit="10" stroke-width=".9209"/>
  <path d="m171.6 118 5.18-2.95 2.03-3.75 6.56 5.09-3.07 7.29c-3.17 2.17-6.12 4.03-9.9 4.03l-2.35-0.8 1.55-8.91z" fill="url(#paint16_linear_4_1782)" stroke="#0B4870" stroke-miterlimit="10" stroke-width="2.202"/>
  <path d="m166 114.2c5.83 1.75 7.9 7.29 6.94 12.85-0.87 4.94-7.04 9.72-9.74 9.72l-2.47-8.96-0.29-12.71c0.77-1.64 2.87-1.7 5.56-0.9z" fill="url(#paint17_linear_4_1782)" stroke="#0B4870" stroke-miterlimit="10" stroke-width="2.202"/>
  <path d="m183.1 100.1 1.06-13-1.56-6.94 9.13-10.43c1.95-1.96 5.23-1.98 9.55-1.23l1.03 0.44-2.07 5.99-2.74 0.52-4.48 8.68 1.77 4.72-1.46 7.32-10.23 3.93z" fill="url(#paint18_linear_4_1782)" stroke="#0B4870" stroke-miterlimit="10" stroke-width="2.202"/>
  <path d="m211.5 73.11 0.83-0.9c4.75 3.66 6.11 6.23 6.26 11.29v6.94c0 3.17-0.97 4.52-3.04 5.81l-11.94 8.26-5.82-6.7 11.21-7.37 0.4-8.98 2.1-8.35z" fill="url(#paint19_linear_4_1782)" stroke="#0B4870" stroke-miterlimit="10" stroke-width="2.202"/>
  <path d="m175.7 112.6 3.22 2.75 2.1 8.55c1.42 1.8 6.37 2.23 10.92 0 6.88-3.26 12.21-14.79 12.88-19.79l-0.9-3.3-5.8-7.09-12 1.35c-6.02 4.29-9.92 11.56-10.42 17.53z" fill="url(#paint20_linear_4_1782)" stroke="#0B4870" stroke-miterlimit="10" stroke-width="2.202"/>
  <path d="m188.8 96.13c0 4.85 4.28 8.21 8.24 8.21 4.12 0 5.88-2.48 5.88-6.66 0-4.44-3.63-7.24-7.02-7.24-3.57 0-7.1 2.48-7.1 5.69z" fill="url(#paint21_linear_4_1782)" stroke="#0B4870" stroke-miterlimit="10" stroke-width="1.807"/>
  <path d="m192.1 97.42c0 2.54 2.19 4.09 4.18 4.09 2.2 0 3.16-1.55 3.16-3.79 0-2.41-1.86-3.76-3.66-3.76-1.96 0-3.68 1.35-3.68 3.46z" fill="url(#paint22_linear_4_1782)" stroke="#0B4870" stroke-miterlimit="10" stroke-width=".9209"/>
  <path d="m187 79.78 2.06 1.13 3.24-3.78" stroke="#0B4870" stroke-miterlimit="10" stroke-width="1.381"/>
  <path d="m185.9 81.11c0.83 0 1.35-0.83 1.35-1.53 0-0.8-0.69-1.25-1.35-1.25-0.83 0-1.29 0.75-1.29 1.34 0 0.8 0.6 1.44 1.29 1.44z" fill="#0B4870"/>
  <path d="m189.2 89.91c1.05 0 1.75-0.92 1.75-1.73 0-0.97-0.84-1.52-1.61-1.52-1.05 0-1.66 0.9-1.66 1.67 0 0.96 0.76 1.58 1.52 1.58z" fill="#0B4870"/>
  <path d="m210.7 79.24 1.54 1.32v6.27" stroke="#0B4870" stroke-miterlimit="10" stroke-width="1.381"/>
  <path d="m212.9 93.96c0.8 0 1.41-0.67 1.41-1.41 0-0.83-0.74-1.39-1.44-1.39-0.86 0-1.42 0.79-1.42 1.45 0 0.83 0.69 1.35 1.45 1.35z" fill="#0B4870"/>
  <path d="m205.9 98.16c0.67 0 1.19-0.63 1.19-1.28 0-0.72-0.66-1.21-1.27-1.21-0.77 0-1.29 0.69-1.29 1.3 0 0.72 0.64 1.19 1.37 1.19z" fill="#0B4870"/>
  <path d="m190.6 119-2.23 0.7-0.97-1.99-2.19-0.64-0.18-2.48-1.36-1.58 1.13-2.17-0.5-2.05 2.32-0.9 0.9-0.84 1.42 0.84 1.46-0.78 1.64 1.13 1.76 0.26 0.8 2.11 1.43 1.29-0.83 1.99 0.7 1.8-2.07 1.23-0.83 1.68-2.4 0.4zm-0.5-3.83c1.4 0 2.25-1.23 2.25-2.37 0-1.35-1.15-2.25-2.28-2.25-1.33 0-2.2 1.16-2.2 2.22 0 1.33 1.01 2.4 2.23 2.4z" fill="#0B4870" opacity=".5"/>
  <path d="m63.59 151.1-2.23 0.7-0.97-1.99-2.19-0.64-0.18-2.47-1.36-1.59 1.13-2.17-0.5-2.05 2.32-0.91 0.9-0.83 1.43 0.83 1.45-0.77 1.64 1.13 1.76 0.26 0.8 2.11 1.43 1.28-0.83 1.99 0.7 1.8-2.07 1.22-0.83 1.69-2.4 0.41zm-0.5-3.83c1.4 0 2.25-1.23 2.25-2.37 0-1.36-1.14-2.25-2.28-2.25-1.33 0-2.2 1.16-2.2 2.22 0 1.33 1.01 2.4 2.23 2.4z" fill="#0B4870" opacity=".5"/>
  <path d="m50.17 167.1c0.58 0 1.04-0.54 1.04-1.12 0-0.64-0.58-1.07-1.1-1.07-0.66 0-1.11 0.61-1.11 1.16 0 0.64 0.56 1.03 1.17 1.03z" fill="#0B4870"/>
  <path d="m54.07 169.1c0.58 0 1.04-0.54 1.04-1.12 0-0.64-0.58-1.07-1.1-1.07-0.66 0-1.11 0.61-1.11 1.16 0 0.64 0.56 1.03 1.17 1.03z" fill="#0B4870"/>
  <path d="m74.11 174.4c0.61 0 1.1-0.57 1.1-1.18 0-0.69-0.63-1.15-1.22-1.15-0.73 0-1.23 0.69-1.23 1.27 0 0.69 0.62 1.06 1.35 1.06z" fill="#0B4870"/>
  <path d="m69.71 171.7c0.5 0 0.91-0.49 0.91-0.99 0-0.61-0.56-1.01-1.06-1.01-0.66 0-1.09 0.61-1.09 1.14 0 0.61 0.56 0.86 1.24 0.86z" fill="#0B4870"/>
  <path d="m92.45 156.8c-6.39 0-9.23 1.35-9.23 18.02 0 10.48 0.6 14.98 9.56 14.98 8.1 0 9.86-2.29 9.86-12.21 0-10.42-4.48-20.79-10.19-20.79z" fill="url(#paint23_linear_4_1782)" stroke="#0B4870" stroke-miterlimit="10" stroke-width="2.202"/>
  <path d="m159.1 157.6c6.39 0 7.52 2.62 7.52 18.47 0 10.48-0.6 13.72-10.07 13.72-7.26 0-9.93-3.07-9.93-12.15 0-10.48 4.48-20.04 12.48-20.04z" fill="url(#paint24_linear_4_1782)" stroke="#0B4870" stroke-miterlimit="10" stroke-width="2.202"/>
  <path d="m85.17 70.92h-2.64c-5.4 0-8.44 4.84-8.44 12.9 0 8.05 2.22 10.79 8.04 10.79l3.69-0.65-0.65-23.04z" fill="url(#paint25_linear_4_1782)" stroke="#0B4870" stroke-miterlimit="10" stroke-width="2.202"/>
  <path d="m166.8 71.21h0.97c5.4 0 6.95 4.85 6.35 14.5-0.43 6.81-1.66 9.1-7.49 9.1l-1.33-1.2 1.5-22.4z" fill="url(#paint26_linear_4_1782)" stroke="#0B4870" stroke-miterlimit="10" stroke-width="2.202"/>
  <path d="m124.4 44.08h0.7c21.58 0 34.8 10.98 41.1 27.01l1.7 17.32c0 14.95-11.74 23.5-42.8 23.5h-1.43c-28.65 0-42.4-8.55-42.4-22.7l1.55-15.85c4.95-15.42 15.74-27.34 34.23-28.85l7.35-0.43z" fill="url(#paint27_linear_4_1782)" stroke="#0B4870" stroke-miterlimit="10" stroke-width="2.202"/>
  <path d="m107.4 47.91 5.59-0.84 10.7-0.91 9.81 0.56 8.29 0.9c-1.85 4.33-4.09 6.59-9.49 6.59h-17.11c-4.32 0-6.96-2.73-7.79-6.3z" fill="url(#paint28_linear_4_1782)" stroke="#0B4870" stroke-miterlimit="10" stroke-width="1.381"/>
  <path d="m124.2 59.32h1.13c19.95 0 31.6 4.73 33.9 17.81 2.77 14.68-0.5 23.85-10.86 26.43-7.99 2.17-13.82 2.53-23.24 2.53h-0.82c-12.06-0.36-26.11-2.73-31.06-8.41-5.17-5.87-4.57-20.55 0.38-28.78 4.57-6.82 14.51-9.58 30.57-9.58z" fill="url(#paint29_linear_4_1782)" stroke="#0B4870" stroke-miterlimit="10" stroke-width="2.202"/>
  <path d="m100.1 110.1c-1.03-0.92-5.51 0-9.88 6.17-7.47 10.43-4.37 26.53 0.92 42.77 1.95 5.94 3.62 8.57 7.4 9.76 7.1 2.35 14.28 3.55 23.31 3.55 10.05 0 20.54-2.04 30.1-5.15 5.83-1.99 10.55-19.73 11.59-32.13 0.6-8.77-3-21.86-10.99-24.46-2.24-0.74-3.57-0.3-5.51 0.4l-8 1.7h-28.88l-10.06-2.61z" fill="url(#paint30_linear_4_1782)" stroke="#0B4870" stroke-miterlimit="10" stroke-width="2.202"/>
  <path d="m101.3 113c0 3.91 9.91 6.29 22.8 6.29 12.9 0 23.72-2.7 23.72-6.59v-2.61l-4.82 0.8-17.9 1.3-19-2.1-4.8-0.7v3.61z" fill="url(#paint31_linear_4_1782)" stroke="#0B4870" stroke-miterlimit="10" stroke-width="2.202"/>
  <path d="m107.9 126.9c-4.86 0-6.21 4.48-6.21 7.59l0.6 9.22c0 4.85 2.47 6.68 8.86 6.68h26.55c6.17 0 8.89-2.58 8.89-7.43v-9.56c0-3.66-3.2-5.96-7-5.7-5.6 0.4-11.55 0.6-15.2 0.6-4.69 0-10.69-0.6-16.49-1.4z" fill="url(#paint32_linear_4_1782)" stroke="#51B7D7" stroke-miterlimit="10" stroke-width="1.807"/>
  <path d="m117.4 156h13.75c2.15 0 2.73 1.06 2.73 2.81v0.69c0 1.55-1.23 2.55-3.46 2.55h-12.16c-2.23 0-3.1-0.8-3.1-2.55v-1.03c0-1.58 0.6-2.47 2.24-2.47z" fill="url(#paint33_linear_4_1782)" stroke="#51B7D7" stroke-miterlimit="10" stroke-width="1.381"/>
  <path d="m144.8 143.7 7.99 10.43 5.3 1.55" stroke="#9BC9D6" stroke-miterlimit="10" stroke-width="1.381"/>
  <path d="m103.4 143.7-7.14 10.43-6.1 1.29" stroke="#9BC9D6" stroke-miterlimit="10" stroke-width="1.381"/>
  <path d="m86.22 166.2h11.09" stroke="#0B4870" stroke-miterlimit="10" stroke-width="1.381"/>
  <path d="m86.22 174.3h11.09" stroke="#0B4870" stroke-miterlimit="10" stroke-width=".9209"/>
  <path d="m86.92 181.3h10.39" stroke="#0B4870" stroke-miterlimit="10" stroke-width=".9209"/>
  <path d="m151.1 166.9h11.09" stroke="#0B4870" stroke-miterlimit="10" stroke-width="1.381"/>
  <path d="m151.1 174.3h11.09" stroke="#0B4870" stroke-miterlimit="10" stroke-width=".9209"/>
  <path d="m151.1 181.3h11.09" stroke="#0B4870" stroke-miterlimit="10" stroke-width=".9209"/>
  <path d="m99.78 82.31c-0.67-6.3 2.33-9.46 7.25-9.46 5.4 0 7.2 4.73 6.68 9.46-0.2 1.42-2.54 1.6-2.54 0 0.34-4.38-2.15-6.13-4.14-6.13-2.25 0-4.11 1.2-4.51 3.94-0.24 1.64-0.47 2.84-1.7 2.84-0.66 0-0.95-0.24-1.04-0.65z" fill="#85F2F2"/>
  <path d="m135.2 82.08c-0.67-5.97 2.53-9.69 7.45-9.69 5.14 0 7.21 4.22 6.97 9.69-0.09 1.36-1.95 1.54-2.18 0.23-0.34-4.04-2.29-6.13-4.79-6.13-2.65 0-4.6 1.83-5 5.28-0.23 1.58-2.3 1.98-2.45 0.62z" fill="#85F2F2"/>
  <path d="m116.7 88.92c2.96 3.41 4.52 4.24 7.62 4.24 3.33 0 4.78-1.44 7.25-4.24" stroke="#6BF2F2" stroke-linecap="round" stroke-linejoin="round" stroke-width="2.763"/>
  <path d="m92.02 163.7c5.4 3.15 12.9 16.4 30.31 15.91 17.54-0.5 25.42-8.14 31.68-13.57-11 3.25-17.17 4.7-27.99 4.7-11.79 0-23.94-2.19-34-7.04z" fill="url(#paint34_linear_4_1782)" stroke="#0B4870" stroke-miterlimit="10" stroke-width="2.202"/>
  <text x="125" y="228" text-anchor="middle" font-family="'PingFang SC', 'Microsoft YaHei', 'Helvetica Neue', Arial, sans-serif" font-size="28" font-weight="700" fill="#fff" letter-spacing="1">小数Claw</text>
  <defs>
    <linearGradient id="paint0_linear_4_1782" x1="123.7" x2="123.7" y1="5.048" y2="245.8" gradientUnits="userSpaceOnUse">
      <stop stop-color="#D1F0FC" offset="0"/>
      <stop stop-color="#29A8F1" offset="1"/>
    </linearGradient>
    <linearGradient id="paint1_linear_4_1782" x1="123.7" x2="123.7" y1="5.048" y2="245.8" gradientUnits="userSpaceOnUse">
      <stop stop-color="#83D3F7" offset="0"/>
      <stop stop-color="#0F62A5" offset="1"/>
    </linearGradient>
    <linearGradient id="paint2_linear_4_1782" x1="124.1" x2="124.1" y1="8.717" y2="237.9" gradientUnits="userSpaceOnUse">
      <stop stop-color="#E6F6FF" offset="0"/>
      <stop stop-color="#E6F6FF" stop-opacity=".21" offset="1"/>
    </linearGradient>
    <radialGradient id="paint3_radial_4_1782" cx="0" cy="0" r="1" gradientTransform="translate(124.1 26.76) scale(11.87)" gradientUnits="userSpaceOnUse">
      <stop stop-color="#C1F0F6" offset="0"/>
      <stop stop-color="#C1F0F6" stop-opacity=".12" offset="1"/>
    </radialGradient>
    <radialGradient id="paint4_radial_4_1782" cx="0" cy="0" r="1" gradientTransform="translate(199.6 45.73) scale(6.576)" gradientUnits="userSpaceOnUse">
      <stop stop-color="#D0F0F7" offset="0"/>
      <stop stop-color="#D0F0F7" stop-opacity=".41" offset="1"/>
    </radialGradient>
    <radialGradient id="paint5_radial_4_1782" cx="0" cy="0" r="1" gradientTransform="translate(209.6 55.16) scale(3.444)" gradientUnits="userSpaceOnUse">
      <stop stop-color="#D0F0F7" offset="0"/>
      <stop stop-color="#D0F0F7" stop-opacity=".41" offset="1"/>
    </radialGradient>
    <radialGradient id="paint6_radial_4_1782" cx="0" cy="0" r="1" gradientTransform="translate(235.8 138.9) scale(4.629)" gradientUnits="userSpaceOnUse">
      <stop stop-color="#D0F0F7" offset="0"/>
      <stop stop-color="#D0F0F7" stop-opacity=".41" offset="1"/>
    </radialGradient>
    <radialGradient id="paint7_radial_4_1782" cx="0" cy="0" r="1" gradientTransform="translate(124.9 190.4) scale(56.12 4.663)" gradientUnits="userSpaceOnUse">
      <stop stop-color="#069" offset="0"/>
      <stop stop-color="#069" stop-opacity=".21" offset="1"/>
    </radialGradient>
    <linearGradient id="paint8_linear_4_1782" x1="124.5" x2="124.5" y1="18.99" y2="47.77" gradientUnits="userSpaceOnUse">
      <stop stop-color="#61D1E8" offset="0"/>
      <stop stop-color="#015484" offset="1"/>
    </linearGradient>
    <radialGradient id="paint9_radial_4_1782" cx="0" cy="0" r="1" gradientTransform="translate(124.7 26.18) scale(4.404)" gradientUnits="userSpaceOnUse">
      <stop stop-color="#11D1E2" offset="0"/>
      <stop stop-color="#017194" offset="1"/>
    </radialGradient>
    <linearGradient id="paint10_linear_4_1782" x1="84.71" x2="84.71" y1="112.8" y2="136.7" gradientUnits="userSpaceOnUse">
      <stop stop-color="#18A2DD" offset="0"/>
      <stop stop-color="#005A97" offset="1"/>
    </linearGradient>
    <linearGradient id="paint11_linear_4_1782" x1="64.93" x2="64.93" y1="131.2" y2="166.2" gradientUnits="userSpaceOnUse">
      <stop stop-color="#FEFEFF" offset="0"/>
      <stop stop-color="#95B0C3" offset="1"/>
    </linearGradient>
    <linearGradient id="paint12_linear_4_1782" x1="50.5" x2="50.5" y1="158.9" y2="187.7" gradientUnits="userSpaceOnUse">
      <stop stop-color="#8895A7" offset="0"/>
      <stop stop-color="#C9D0D9" offset="1"/>
    </linearGradient>
    <linearGradient id="paint13_linear_4_1782" x1="70.51" x2="70.51" y1="166" y2="188.9" gradientUnits="userSpaceOnUse">
      <stop stop-color="#8895A7" offset="0"/>
      <stop stop-color="#C9D0D9" offset="1"/>
    </linearGradient>
    <linearGradient id="paint14_linear_4_1782" x1="63.18" x2="63.18" y1="155.2" y2="169" gradientUnits="userSpaceOnUse">
      <stop stop-color="#1991D0" offset="0"/>
      <stop stop-color="#005695" offset="1"/>
    </linearGradient>
    <linearGradient id="paint15_linear_4_1782" x1="63.16" x2="63.16" y1="157.9" y2="166.2" gradientUnits="userSpaceOnUse">
      <stop stop-color="#37A0D4" offset="0"/>
      <stop stop-color="#005695" offset="1"/>
    </linearGradient>
    <linearGradient id="paint16_linear_4_1782" x1="178.6" x2="178.6" y1="111.3" y2="127.7" gradientUnits="userSpaceOnUse">
      <stop stop-color="#18A2DD" offset="0"/>
      <stop stop-color="#005A97" offset="1"/>
    </linearGradient>
    <linearGradient id="paint17_linear_4_1782" x1="167.2" x2="167.2" y1="113.8" y2="136.7" gradientUnits="userSpaceOnUse">
      <stop stop-color="#18A2DD" offset="0"/>
      <stop stop-color="#005A97" offset="1"/>
    </linearGradient>
    <linearGradient id="paint18_linear_4_1782" x1="192.1" x2="192.1" y1="67.67" y2="104.5" gradientUnits="userSpaceOnUse">
      <stop stop-color="#8895A7" offset="0"/>
      <stop stop-color="#C9D0D9" offset="1"/>
    </linearGradient>
    <linearGradient id="paint19_linear_4_1782" x1="209" x2="209" y1="72.21" y2="104.5" gradientUnits="userSpace0Use">
      <stop stop-color="#8895A7" offset="0"/>
      <stop stop-color="#C9D0D9" offset="1"/>
    </linearGradient>
    <linearGradient id="paint20_linear_4_1782" x1="190.6" x2="190.6" y1="93.74" y2="125.9" gradientUnits="userSpaceOnUse">
      <stop stop-color="#FEFEFF" offset="0"/>
      <stop stop-color="#95B0C3" offset="1"/>
    </linearGradient>
    <linearGradient id="paint21_linear_4_1782" x1="195.7" x2="195.7" y1="90.44" y2="104.3" gradientUnits="userSpaceOnUse">
      <stop stop-color="#1991D0" offset="0"/>
      <stop stop-color="#005695" offset="1"/>
    </linearGradient>
    <linearGradient id="paint22_linear_4_1782" x1="195.7" x2="195.7" y1="93.96" y2="101.5" gradientUnits="userSpaceOnUse">
      <stop stop-color="#37A0D4" offset="0"/>
      <stop stop-color="#005695" offset="1"/>
    </linearGradient>
    <linearGradient id="paint23_linear_4_1782" x1="92.38" x2="92.38" y1="156.8" y2="189.8" gradientUnits="userSpace0Use">
      <stop stop-color="#005695" offset="0"/>
      <stop stop-color="#004269" offset="1"/>
    </linearGradient>
    <linearGradient id="paint24_linear_4_1782" x1="156.5" x2="156.5" y1="157.6" y2="189.8" gradientUnits="userSpaceOnUse">
      <stop stop-color="#005695" offset="0"/>
      <stop stop-color="#004269" offset="1"/>
    </linearGradient>
    <linearGradient id="paint25_linear_4_1782" x1="79.7" x2="79.7" y1="70.92" y2="94.62" gradientUnits="userSpaceOnUse">
      <stop stop-color="#005695" offset="0"/>
      <stop stop-color="#004269" offset="1"/>
    </linearGradient>
    <linearGradient id="paint26_linear_4_1782" x1="169.8" x2="169.8" y1="71.2" y2="94.81" gradientUnits="userSpaceOnUse">
      <stop stop-color="#005695" offset="0"/>
      <stop stop-color="#004269" offset="1"/>
    </linearGradient>
    <linearGradient id="paint27_linear_4_1782" x1="124.5" x2="124.5" y1="44.08" y2="111.9" gradientUnits="userSpaceOnUse">
      <stop stop-color="#FEFEFF" offset="0"/>
      <stop stop-color="#96B1C4" offset="1"/>
    </linearGradient>
    <linearGradient id="paint28_linear_4_1782" x1="124.6" x2="124.6" y1="46.16" y2="54.21" gradientUnits="userSpaceOnUse">
      <stop stop-color="#A6E3F9" offset="0"/>
      <stop stop-color="#80D0EA" offset="1"/>
    </linearGradient>
    <linearGradient id="paint29_linear_4_1782" x1="124.6" x2="124.6" y1="58.82" y2="106.1" gradientUnits="userSpaceOnUse">
      <stop stop-color="#1E91C9" offset="0"/>
      <stop stop-color="#083152" offset="1"/>
    </linearGradient>
    <linearGradient id="paint30_linear_4_1782" x1="124.5" x2="124.5" y1="109.4" y2="172.4" gradientUnits="userSpaceOnUse">
      <stop stop-color="#FEFEFF" offset="0"/>
      <stop stop-color="#95B0C3" offset="1"/>
    </linearGradient>
    <linearGradient id="paint31_linear_4_1782" x1="124.5" x2="124.5" y1="109.4" y2="119.3" gradientUnits="userSpaceOnUse">
      <stop stop-color="#069" offset="0"/>
      <stop stop-color="#069" stop-opacity=".21" offset="1"/>
    </linearGradient>
    <linearGradient id="paint32_linear_4_1782" x1="124.5" x2="124.5" y1="127.6" y2="150.4" gradientUnits="userSpaceOnUse">
      <stop stop-color="#A6E3F9" offset="0"/>
      <stop stop-color="#80D0EA" stop-opacity=".5" offset="1"/>
    </linearGradient>
    <linearGradient id="paint33_linear_4_1782" x1="124.5" x2="124.5" y1="155.5" y2="162.6" gradientUnits="userSpaceOnUse">
      <stop stop-color="#38D5F6" offset="0"/>
      <stop stop-color="#29A8F1" offset="1"/>
    </linearGradient>
    <linearGradient id="paint34_linear_4_1782" x1="124.5" x2="124.5" y1="163.7" y2="179.6" gradientUnits="userSpaceOnUse">
      <stop stop-color="#1882C8" offset="0"/>
      <stop stop-color="#005A97" offset="1"/>
    </linearGradient>
  </defs>
</svg>