<svg xmlns="http://www.w3.org/2000/svg" width="200" height="200" fill="none" viewBox="0 0 200 200">
<!-- SVG created with Arrow, by QuiverAI (https://quiver.ai) -->
  <path d="m56.51 162.5c0 1.88 17.1 3.49 48.46 3.49s54.14-1.61 54.14-3.49-22.78-3.12-54.14-3.12-48.46 1.24-48.46 3.12z" fill="#005287" opacity=".25"/>
  <path d="m61.33 195-0.03-12.74-6.39 11.02h-2.31l-6.37-10.72v12.44h-3.91v-21.39h3.49l8.02 13.34 8.28-13.34h3.46l0.06 21.39h-4.3zm16.47 0.23c-4.99 0-8.73-3.46-8.73-8.28s3.74-8.24 8.73-8.24c5.05 0 8.73 3.42 8.73 8.24s-3.68 8.28-8.73 8.28zm0-3.46c2.69 0 4.42-2.31 4.42-4.82 0-2.54-1.73-4.79-4.42-4.79-2.62 0-4.41 2.25-4.41 4.79 0 2.51 1.79 4.82 4.41 4.82zm16.45-0.06h8.34v3.29h-14.14v-2.65l8.08-10.12h-7.84v-3.29h13.63v2.65l-8.07 10.12zm26-4.69c0 0.4-0.03 0.97-0.06 1.37h-12.08c0.53 2.08 2.28 3.38 4.75 3.38 1.57 0 2.9-0.53 4-1.57l2.38 2.72c-1.57 1.74-3.82 2.31-6.51 2.31-5.47 0-8.52-3.32-8.52-8.28 0-4.82 3.32-8.24 8.15-8.24 4.81 0 7.89 3.35 7.89 8.31zm-7.86-5.06c-2.27 0-3.75 1.51-4.28 3.62h8.42c-0.44-2.21-2.01-3.62-4.14-3.62zm26.95 1.78c2.14 0.97 3.45 2.88 3.45 5.42 0 3.72-2.85 5.84-8.48 5.84h-10.55v-21.39h9.88c5.25 0 7.87 2.25 7.87 5.67 0 1.91-0.87 3.42-2.17 4.46zm-6.23-6.71h-4.7v5.43h4.7c2.72 0 4.06-1 4.06-2.74 0-1.78-1.34-2.69-4.06-2.69zm0.87 14.54c2.89 0 4.36-0.87 4.36-2.88 0-1.97-1.47-2.88-4.36-2.88h-5.57v5.76h5.57zm19.04 3.66c-4.99 0-8.54-3.46-8.54-8.28s3.55-8.24 8.54-8.24c5.05 0 8.74 3.42 8.74 8.24s-3.69 8.28-8.74 8.28zm0-3.46c2.69 0 4.43-2.31 4.43-4.82 0-2.54-1.74-4.79-4.43-4.79-2.62 0-4.23 2.25-4.23 4.79 0 2.51 1.61 4.82 4.23 4.82zm20.73-0.73 1.24 3.12c-0.94 0.73-2.44 1.07-3.98 1.07-3.92 0-5.79-2.01-5.79-5.97v-6.63h-2.41v-3.45h2.41v-4.09h4.31v4.09h4.15v3.45h-4.15v6.56c0 1.37 0.84 2.32 2.08 2.32 0.77 0 1.54-0.17 2.14-0.47z" fill="#0B2F5B"/>
  <path d="m108.1 152.9c16.92 0 27.12-9.8 30.35-18.67h-8.36c-3.77 4-10.02 6.98-21.99 6.98s-18.22-2.98-21.99-6.98h-8.36c3.23 8.87 13.43 18.67 30.35 18.67z" fill="url(#paint0_linear_7469_43140)" stroke="#002C5E" stroke-linecap="round" stroke-linejoin="round" stroke-width="2"/>
  <path d="m131.8 135.2h7.06c3.83-0.98 7-0.18 7.48 6.59 0.7 9.96 0.58 14.19-1.09 17.17-1.67 2.99-6.16 3.53-10.2 2.86-3.23-0.54-5.95-1.72-6.22-7.86-0.26-6.14 0.23-15.15 2.97-18.76z" fill="url(#paint1_linear_7469_43140)" stroke="#002C5E" stroke-linecap="round" stroke-linejoin="round" stroke-width="2"/>
  <path d="m133.1 142.2 9.74-0.14" stroke="#002C5E" stroke-linecap="round" stroke-linejoin="round" stroke-width="1.5"/>
  <path d="m132.9 148.7 9.74-0.14" stroke="#002C5E" stroke-linecap="round" stroke-linejoin="round" stroke-width="1.5"/>
  <path d="m132.9 155.2 9.74-0.14" stroke="#002C5E" stroke-linecap="round" stroke-linejoin="round" stroke-width="1.5"/>
  <path d="m84.63 135.2h-5.51c-3.83-0.98-7.61 0.55-8.51 6.59-1 7.01-0.61 14.99 0.63 17.17 1.88 3.44 5.04 3.54 8.73 3.3 3.24-0.21 6.18-1.73 6.64-6.32 0.74-7.52 0.59-16.69-1.98-20.74z" fill="url(#paint2_linear_7469_43140)" stroke="#002C5E" stroke-linecap="round" stroke-linejoin="round" stroke-width="2"/>
  <path d="m83.49 142.2-10.2-0.14" stroke="#002C5E" stroke-linecap="round" stroke-linejoin="round" stroke-width="1.5"/>
  <path d="m83.49 148.7-10.2-0.14" stroke="#002C5E" stroke-linecap="round" stroke-linejoin="round" stroke-width="1.5"/>
  <path d="m83.49 155.2-9.74-0.14" stroke="#002C5E" stroke-linecap="round" stroke-linejoin="round" stroke-width="1.5"/>
  <path d="m150.2 120.5 2.84-5.48c-0.78-2.03-3.93-7.9-6.8-9.28l3.73-4.6c3.8 1.8 7.17 7.29 9.05 11.08l-1.7 9.51-7.12-1.23z" fill="url(#paint3_linear_7469_43140)" stroke="#002C5E" stroke-linecap="round" stroke-linejoin="round" stroke-width="2"/>
  <path d="m154.3 136.9c-4.96-5.64-5.05-15.44-3.26-19.17 2.33 0.09 4.21-0.67 5.95-5.66 2.66-4.88 8.15-3.48 12.15 2.53 4.82 7.06 5.12 15.24 2.68 20.54l-2.68 2.27-9.12 0.78-5.72-1.29z" fill="url(#paint4_linear_7469_43140)" stroke="#002C5E" stroke-linecap="round" stroke-linejoin="round" stroke-width="2"/>
  <path d="m154.1 136.6c-2.63 2.56-4 8.16-1.4 8.93 2.9 0.93 5.14-3.24 6.27-5.8l-0.66 8.23c-0.14 2.01 1.29 3.94 4.11 2.24 1.19-0.71 1.68-1.81 1.87-2.52 0.4 1.51 3.62 1.26 5.22-1.98 1.33-3.01 0.94-6.98 2.38-10.29-4.19-4.76-13.4-3.15-17.79 1.19z" fill="url(#paint5_linear_7469_43140)" stroke="#002C5E" stroke-linecap="round" stroke-linejoin="round" stroke-width="2"/>
  <path d="m165.4 146.8c0.77-1.78 1.43-4.95 1.67-6.69" stroke="#002C5E" stroke-linecap="round" stroke-linejoin="round" stroke-width="1.5"/>
  <path d="m155.7 137.6c1.87 1.25 2.26 3.69 5.42 4.66 4.32 1.34 7.11-1.75 7.67-5.2-1.88-2.76-1.63-2.4-3.59-2.81-2.99-0.66-8.17 1.9-9.5 3.35z" fill="url(#paint6_linear_7469_43140)"/>
  <path d="m60.32 106.3c2.4-3.55 6.64-6.34 9.54-7.15l2.05 10.8c-1.4 3.55-5.73 6.17-8.68 6.61l-2.91-10.26z" fill="url(#paint7_linear_7469_43140)" stroke="#002C5E" stroke-linecap="round" stroke-linejoin="round" stroke-width="2"/>
  <path d="m73.05 91.41h3.78l3.99 2.5-1.88 17.87-7.91 1.14c-6.08-1.97-7.84-9.1-5.71-14.93 1.46-3.81 5.07-6.58 7.73-6.58z" fill="url(#paint8_linear_7469_43140)" stroke="#002C5E" stroke-linecap="round" stroke-linejoin="round" stroke-width="2"/>
  <path d="m144 91.41h-2.9l-4.15 1.49 2.9 18.88 6.6-0.56c4.51-1.97 6.3-7.02 5.43-12.29-0.87-3.82-4.63-7.52-7.88-7.52z" fill="url(#paint9_linear_7469_43140)" stroke="#002C5E" stroke-linecap="round" stroke-linejoin="round" stroke-width="2"/>
  <path d="m108.1 19.75c4.67 0 8.48 4.06 8.76 7.3h-17.52c0.28-3.24 4.09-7.3 8.76-7.3z" fill="url(#paint10_linear_7469_43140)" stroke="#002C5E" stroke-linecap="round" stroke-linejoin="round" stroke-width="2"/>
  <path d="m107.8 10.24v9.92" stroke="#002C5E" stroke-linecap="round" stroke-linejoin="round" stroke-width="4"/>
  <path d="m108.1 15.52c3.77 0 5.74-3.05 5.51-6.09-0.23-3.05-2.72-3.36-5.51-3.43s-5.15 1.95-5.45 4.61c-0.31 2.66 1.99 4.91 5.45 4.91z" fill="url(#paint11_linear_7469_43140)" stroke="#002C5E" stroke-linecap="round" stroke-linejoin="round" stroke-width="2"/>
  <path d="m107.2 12.06c1.82 0 2.75-1.45 2.65-2.9-0.11-1.45-1.34-1.61-2.65-1.65-1.32-0.03-2.45 0.96-2.6 2.28s1 2.27 2.6 2.27z" fill="#78F1FF"/>
  <path d="m69.86 52.23c-5.18 0-8.35 3.96-8.35 11.48 0 6.7 2.56 9.43 7.55 10.01l2.17-2.98-0.27-17.63-1.1-0.88z" fill="url(#paint12_linear_7469_43140)" stroke="#002C5E" stroke-linecap="round" stroke-linejoin="round" stroke-width="2"/>
  <path d="m147.5 52.23c4.67 0 7.07 4.89 7.07 11.48 0 6.37-2.9 9.43-6.73 10.01l-1.67-2.56 0.4-18.05 0.93-0.88z" fill="url(#paint13_linear_7469_43140)" stroke="#002C5E" stroke-linecap="round" stroke-linejoin="round" stroke-width="2"/>
  <path d="m108.1 26.72c19.2 0 35.17 9.09 38.94 24.09 1.91 7.52 2.11 11.55 0.97 20.9-2.62 11.1-13.17 18.92-39.91 18.92-23.46 0-35.76-7.52-38.94-17.42-2.34-7.5 0-19.22 3.68-27.27 5.8-11.23 16.86-19.22 35.26-19.22z" fill="url(#paint14_linear_7469_43140)" stroke="#002C5E" stroke-linecap="round" stroke-linejoin="round" stroke-width="2"/>
  <path d="m92.12 30.61c6.76-1.7 15.07-2.17 24.02-1.43 4.31 0.37 7.75 1.43 7.75 1.43-1.88 3.65-3.43 5.35-7.07 5.35h-17.94c-3.57 0-5.77-2.3-6.76-5.35z" fill="#B8F2FF" stroke="#56CCF2" stroke-linecap="round" stroke-linejoin="round" stroke-width="1.5"/>
  <path d="m108.2 41.06c18.63 0 31.6 3.72 32.47 20.85 0.94 14.32-3.97 21.48-32.47 21.52-25.33 0.03-32.77-5.61-32.21-18.27 0.81-17.78 8.75-24.1 32.21-24.1z" fill="url(#paint15_linear_7469_43140)" stroke="#002C5E" stroke-linecap="round" stroke-linejoin="round" stroke-width="2"/>
  <path d="m93.12 54.51c3.34 0 3.9 3.42 3.67 5.43-0.41 3.17-2.28 4.99-3.95 4.92-3.12-0.14-4.06-2.6-4.06-5.15s1.44-5.2 4.34-5.2z" fill="#78F1FF"/>
  <path d="m123.2 54.51c3.61 0 4.21 3.42 3.95 5.43-0.46 3.17-2.51 4.99-4.36 4.92-3.42-0.14-4.16-2.77-4.16-5.15s1.43-5.2 4.57-5.2z" fill="#78F1FF"/>
  <path d="m101.1 69.37c1.88 2.21 3.55 3.39 7 3.39 3.46 0 5.13-1.51 6.8-3.39" stroke="#42E8F7" stroke-linecap="round" stroke-linejoin="round" stroke-width="3"/>
  <path d="m85.68 88.29c1.13 5.02 8.43 7.64 21.85 7.77 11.43 0.12 19.69-2.63 21.79-7.84-5.91 1.74-12.24 2.57-20.4 2.48-8.01-0.09-15.84-0.92-23.24-2.41z" fill="url(#paint16_linear_7469_43140)" stroke="#002C5E" stroke-linecap="round" stroke-linejoin="round" stroke-width="2"/>
  <path d="m82.82 88.56c-7.06 2.38-10.62 10.3-10.62 19.57 0 9.96 3.96 23.68 7.28 30.18 8.2 4.77 21.74 6.14 28.18 6.14 7.46 0 19.43-2.01 27.31-5.34 4.34-5.9 9.01-18.89 9.01-30.98 0-9.27-4.1-16.72-10.91-19.57-6.25 3.55-14.1 4.6-24.66 4.6-10.55 0-18.69-1.52-25.59-4.6z" fill="url(#paint17_linear_7469_43140)" stroke="#002C5E" stroke-linecap="round" stroke-linejoin="round" stroke-width="1.5"/>
  <path d="m137.9 93.16c-6.11 4.96-13.96 6.78-29.85 6.78-14.45 0-23.02-2.22-28.86-6.25 0.94-1.97 2.08-3.53 3.61-4.83 6.25 2.98 13.44 4.57 25.11 4.57 10.69 0 18.29-1.72 23.85-4.87 2.63 0.87 4.73 2.55 6.14 4.6z" fill="#005287" opacity=".2"/>
  <path d="m89.94 104.6c1.1-0.73 2.15-0.8 3.17-0.74 3.9 0.27 9.81 0.67 15.7 0.67 4.95 0 10.54-0.33 15.15-0.67 3.68-0.26 5.35 3.46 5.16 6.33l-0.57 9.64c-0.24 2.92-2.19 5.54-6.14 5.77-4.99 0.3-8.22 0.3-13.6 0.3-5.09 0-7.99-0.13-13.75-0.4-4.99-0.24-7.32-2.25-7.72-6.48l-0.27-8.9c-0.06-2.41 0.94-4.32 2.87-5.52z" fill="url(#paint18_linear_7469_43140)" stroke="#005287" stroke-linecap="round" stroke-linejoin="round" stroke-width="2"/>
  <path d="m92.05 110.5h2.9" stroke="#42E8F7" stroke-linecap="round" stroke-linejoin="round" stroke-width="2.5"/>
  <path d="m92.05 115h2.9" stroke="#42E8F7" stroke-linecap="round" stroke-linejoin="round" stroke-width="2.5"/>
  <path d="m92.05 119h2.9" stroke="#42E8F7" stroke-linecap="round" stroke-linejoin="round" stroke-width="2.5"/>
  <path d="m121.2 110.5h2.7" stroke="#42E8F7" stroke-linecap="round" stroke-linejoin="round" stroke-width="2.5"/>
  <path d="m120.6 115h3.27" stroke="#42E8F7" stroke-linecap="round" stroke-linejoin="round" stroke-width="2.5"/>
  <path d="m121.2 119h2.7" stroke="#42E8F7" stroke-linecap="round" stroke-linejoin="round" stroke-width="2.5"/>
  <path d="m102.1 109.1h1.01l4.81 8.09 4.82-8.09h1.6l2.02 11.77v0.27h-2.27l-1.35-8.05-4.04 6.8h-1.44l-4.04-6.8-1.23 8.05h-2.27v-0.27l2.01-11.77h0.37z" fill="#FEFFFE" stroke="#42E8F7" stroke-linecap="round" stroke-linejoin="round" stroke-width=".75"/>
  <path d="m101.6 131.4h12.96c1.8 0 2.25 1.2 2.21 2.47-0.04 1.28-0.93 2.03-2.36 2.03h-12.51c-1.7 0-2.34-1.09-2.3-2.43s0.76-2.07 2-2.07z" fill="#42F3FF" stroke="#0072BC" stroke-linecap="round" stroke-linejoin="round" stroke-width="1.5"/>
  <path d="m77.36 130c2.34 0.4 3.73-0.2 4.92-1.41 2.01-2.08 3.38-4.66 5.06-6.24l1.14 1.1c-1.87 1.38-2.8 3.63-4.54 5.48-1.87 2.01-3.79 2.41-5.61 2.01l-0.97-0.94z" fill="#005287" opacity=".2"/>
  <path d="m128.1 122.6c2.62 2.28 3.55 5.14 6.17 6.52 1.28 0.67 3.16 0.87 4.11 0.47l-0.5 1.4c-1.44 0.34-3.21-0.1-4.85-1.27-2.34-1.58-3.28-3.83-5.75-5.81l0.82-1.31z" fill="#005287" opacity=".2"/>
  <path d="m80.35 135.9c7.46 3.27 15.56 4.04 26.77 4.04 9.74 0 18.97-2.11 26.19-3.63-1.2 2.25-2.7 3.5-4.19 3.97-7.21 2.38-14.27 3.46-21.19 3.26-9.12-0.27-17.75-2.24-24.12-4.64-1.74-0.67-2.88-1.85-3.46-3z" fill="#005287" opacity=".2"/>
  <path d="m31.7 94.46c-2.52-1.73-6.64-1.84-7.21 0.85-0.77 3.72 3.42 7.45 9.18 10.11 0.44 3.55 3.06 7.72 10.12 12.33 5.25 3.46 12.27 4.06 15.17 0.41 3.28-3.55 2.85-11.21-4.24-16.23-2.94-2.12-6.71-3.61-9.61-4.54l-0.4-3.38-7.85-0.85-5.16 1.3z" fill="url(#paint19_linear_7469_43140)" stroke="#002C5E" stroke-linecap="round" stroke-linejoin="round" stroke-width="2"/>
  <path d="m38.37 108.2c2.43 0.61 5.55-0.1 6.74-1.21 2.34 2.73 7.33 7.59 12.28 7.99-2.26 2.88-7.08 2.88-12.28-0.67-3.9-2.72-6.3-5.09-6.74-6.11z" fill="#005287" opacity=".2"/>
  <path d="m27.47 95.72c1.01 2.91 2.24 4.99 4.64 6.01" stroke="#002C5E" stroke-linecap="round" stroke-linejoin="round" stroke-width="2"/>
  <path d="m33.06 93.84c-1.43 0.94-1.03 4.28 0.61 7.83 1.04 2.14 4.36 1.74 4.7-0.82 1.07-0.4 2.77-0.78 4.24-0.54 2.5 0.4 4.7 1.42 5 0.14 0.4-1.72-1.8-3.73-4.49-4.27-1.7-0.4-3.97 0-5.21 0.54-0.7-2.66-2.2-4.2-4.85-2.88z" fill="url(#paint20_linear_7469_43140)" stroke="#002C5E" stroke-linecap="round" stroke-linejoin="round" stroke-width="1.5"/>
  <path d="m55.62 79.9-2.61-0.62c-0.45-1.1-0.78-1.97-1.49-2.91l1.6-2.65-3.17-3.12-2.62 1.79c-1.1-0.51-2.05-0.95-3.14-1.29l-0.77-2.82h-4.07l-0.98 3.03c-1.04 0.4-2.01 0.7-2.95 1.21l-2.69-1.92-3.77 3.32 1.53 2.79c-0.63 1-0.97 1.67-1.53 2.91l-2.4 0.28v4.82l2.9 0.81c0.4 1.14 0.86 2.08 1.56 3.03l-1.36 2.38 3.16 2.97 2.47-1.46c1.07 0.57 1.92 0.91 3.15 1.18l0.57 2.83h4.61l0.7-3.1c1.1-0.4 2.11-0.91 3.01-1.52l2.43 1.52 2.9-3.26-1.34-2.89c0.49-0.94 0.86-1.95 1.2-2.96l3.1-0.54v-3.81zm-14.27 7.11c-3.24 0-5.22-2.66-5.22-4.91 0-2.98 2.24-4.86 5.03-4.99 3.16-0.14 5.33 2.65 5.33 4.99 0 2.79-2.08 4.91-5.14 4.91z" clip-rule="evenodd" fill="url(#paint21_linear_7469_43140)" fill-rule="evenodd" stroke="#002C5E" stroke-linecap="round" stroke-linejoin="round" stroke-width="2"/>
  <path d="m145.1 95.72 3.68 2.54" opacity=".2" stroke="#FEFFFE" stroke-linecap="round" stroke-linejoin="round" stroke-width="2"/>
  <path d="m71.43 95.72-2.82 2.54" opacity=".2" stroke="#FEFFFE" stroke-linecap="round" stroke-linejoin="round" stroke-width="2"/>
  <defs>
    <linearGradient id="paint0_linear_7469_43140" x1="108.1" x2="108.1" y1="133.4" y2="152.9" gradientUnits="userSpaceOnUse">
      <stop stop-color="#01A1E2" offset="0"/>
      <stop stop-color="#01579B" offset="1"/>
    </linearGradient>
    <linearGradient id="paint1_linear_7469_43140" x1="137.2" x2="137.2" y1="134.4" y2="162.2" gradientUnits="userSpaceOnUse">
      <stop stop-color="#01A1E2" offset="0"/>
      <stop stop-color="#01396A" offset="1"/>
    </linearGradient>
    <linearGradient id="paint2_linear_7469_43140" x1="78.51" x2="78.51" y1="134.4" y2="162.2" gradientUnits="userSpaceOnUse">
      <stop stop-color="#01A1E2" offset="0"/>
      <stop stop-color="#01396A" offset="1"/>
    </linearGradient>
    <linearGradient id="paint3_linear_7469_43140" x1="152.6" x2="152.6" y1="100.4" y2="117" gradientUnits="userSpaceOnUse">
      <stop stop-color="#01A1E2" offset="0"/>
      <stop stop-color="#01396A" offset="1"/>
    </linearGradient>
    <linearGradient id="paint4_linear_7469_43140" x1="162.6" x2="162.6" y1="109.5" y2="136.1" gradientUnits="userSpaceOnUse">
      <stop stop-color="#FEFFFE" offset="0"/>
      <stop stop-color="#D7E8F4" offset="1"/>
    </linearGradient>
    <linearGradient id="paint5_linear_7469_43140" x1="162.5" x2="162.5" y1="133.5" y2="151" gradientUnits="userSpaceOnUse">
      <stop stop-color="#01A1E2" offset="0"/>
      <stop stop-color="#01396A" offset="1"/>
    </linearGradient>
    <linearGradient id="paint6_linear_7469_43140" x1="162.5" x2="162.5" y1="133.9" y2="142.7" gradientUnits="userSpaceOnUse">
      <stop stop-color="#0169BC" offset="0"/>
      <stop stop-color="#42E8F7" offset="1"/>
    </linearGradient>
    <linearGradient id="paint7_linear_7469_43140" x1="66.45" x2="66.45" y1="98.43" y2="116.3" gradientUnits="userSpaceOnUse">
      <stop stop-color="#01A1E2" offset="0"/>
      <stop stop-color="#01396A" offset="1"/>
    </linearGradient>
    <linearGradient id="paint8_linear_7469_43140" x1="72.46" x2="72.46" y1="91.19" y2="112.6" gradientUnits="userSpaceOnUse">
      <stop stop-color="#01A1E2" offset="0"/>
      <stop stop-color="#01396A" offset="1"/>
    </linearGradient>
    <linearGradient id="paint9_linear_7469_43140" x1="144.6" x2="144.6" y1="90.87" y2="111.8" gradientUnits="userSpaceOnUse">
      <stop stop-color="#01A1E2" offset="0"/>
      <stop stop-color="#01396A" offset="1"/>
    </linearGradient>
    <linearGradient id="paint10_linear_7469_43140" x1="108.1" x2="108.1" y1="20.27" y2="26.72" gradientUnits="userSpaceOnUse">
      <stop stop-color="#01A1E2" offset="0"/>
      <stop stop-color="#01396A" offset="1"/>
    </linearGradient>
    <linearGradient id="paint11_linear_7469_43140" x1="108.1" x2="108.1" y1="5.99" y2="15.52" gradientUnits="userSpaceOnUse">
      <stop stop-color="#01A1E2" offset="0"/>
      <stop stop-color="#01396A" offset="1"/>
    </linearGradient>
    <linearGradient id="paint12_linear_7469_43140" x1="66.31" x2="66.31" y1="52.23" y2="73.2" gradientUnits="userSpaceOnUse">
      <stop stop-color="#01A1E2" offset="0"/>
      <stop stop-color="#01396A" offset="1"/>
    </linearGradient>
    <linearGradient id="paint13_linear_7469_43140" x1="150.4" x2="150.4" y1="52.23" y2="73.2" gradientUnits="userSpaceOnUse">
      <stop stop-color="#01A1E2" offset="0"/>
      <stop stop-color="#01396A" offset="1"/>
    </linearGradient>
    <linearGradient id="paint14_linear_7469_43140" x1="108.1" x2="108.1" y1="26.72" y2="90.63" gradientUnits="userSpaceOnUse">
      <stop stop-color="#FEFFFE" offset="0"/>
      <stop stop-color="#B8D0E6" offset="1"/>
    </linearGradient>
    <linearGradient id="paint15_linear_7469_43140" x1="108.4" x2="108.4" y1="40.06" y2="83.43" gradientUnits="userSpaceOnUse">
      <stop stop-color="#1896BA" offset="0"/>
      <stop stop-color="#012977" offset="1"/>
    </linearGradient>
    <linearGradient id="paint16_linear_7469_43140" x1="107.5" x2="107.5" y1="87.71" y2="96.09" gradientUnits="userSpaceOnUse">
      <stop stop-color="#01A1E2" offset="0"/>
      <stop stop-color="#01396A" offset="1"/>
    </linearGradient>
    <linearGradient id="paint17_linear_7469_43140" x1="107.7" x2="107.7" y1="88.56" y2="144.4" gradientUnits="userSpaceOnUse">
      <stop stop-color="#FEFFFE" offset="0"/>
      <stop stop-color="#B8D0E6" offset="1"/>
    </linearGradient>
    <linearGradient id="paint18_linear_7469_43140" x1="108.1" x2="108.1" y1="103.4" y2="126.4" gradientUnits="userSpaceOnUse">
      <stop stop-color="#42E8F7" offset="0"/>
      <stop stop-color="#0072BC" offset="1"/>
    </linearGradient>
    <linearGradient id="paint19_linear_7469_43140" x1="41.15" x2="41.15" y1="92.72" y2="120.4" gradientUnits="userSpaceOnUse">
      <stop stop-color="#01A1E2" offset="0"/>
      <stop stop-color="#01396A" offset="1"/>
    </linearGradient>
    <linearGradient id="paint20_linear_7469_43140" x1="39.7" x2="39.7" y1="93.36" y2="103.1" gradientUnits="userSpaceOnUse">
      <stop stop-color="#01A1E2" offset="0"/>
      <stop stop-color="#017DC1" offset="1"/>
    </linearGradient>
    <linearGradient id="paint21_linear_7469_43140" x1="41.09" x2="41.09" y1="67.78" y2="94.64" gradientUnits="userSpaceOnUse">
      <stop stop-color="#42E8F7" offset="0"/>
      <stop stop-color="#01529B" offset="1"/>
    </linearGradient>
  </defs>
</svg>