<svg xmlns="http://www.w3.org/2000/svg" width="250" height="250" fill="none" viewBox="0 0 250 250">
<!-- SVG created with Arrow, by QuiverAI (https://quiver.ai) -->
  <path d="m56.26 6h136.9c26.43 0 47.7 22.37 47.7 48.81v138.9c0 26.18-21.52 49.26-48.21 49.26h-135.6c-26.44 0-49.11-22.82-49.11-49.26v-142.3c0-24.86 21.01-45.42 48.26-45.42z" fill="url(#paint0_linear_103_1723)" stroke="#54BCE6" stroke-miterlimit="10" stroke-width="4.606"/>
  <path d="m53.31 9.22h141.6c24.23 0 43.04 21.49 43.04 45.72v138.5c0 23.79-20.35 46.16-45.04 46.16h-136c-24.23 0-44.82-21.52-44.82-45.75v-142.4c0-23.38 18.25-42.25 41.25-42.25z" fill="url(#paint1_linear_103_1723)" opacity=".5"/>
  <path d="m237.6 169.2h-34.17l-23.29-16.06" opacity=".3" stroke="#fff" stroke-miterlimit="10" stroke-width="1.535"/>
  <path d="m216.1 110.1c3.63 23.68-2.31 48.22-18.1 67.99" opacity=".3" stroke="#fff" stroke-miterlimit="10" stroke-width="1.535"/>
  <path d="m180.8 180.5c15.8-14.62 25.7-35.44 25.38-57.15" opacity=".3" stroke="#fff" stroke-miterlimit="10" stroke-width="1.535"/>
  <path d="m153.1 33.13c18.58 6.73 35.25 19.59 46.83 37.93" opacity=".3" stroke="#fff" stroke-miterlimit="10" stroke-width="1.535"/>
  <path d="m165.9 51.21c10.94 7.01 21.09 16.92 27.82 27.95" opacity=".3" stroke="#fff" stroke-miterlimit="10" stroke-width="1.535"/>
  <path d="m220.9 22.42-50.8 50.8" opacity=".3" stroke="#fff" stroke-miterlimit="10" stroke-width="1.535"/>
  <path d="m237.9 67.76h-19.84l-11.67-11.67" opacity=".3" stroke="#fff" stroke-miterlimit="10" stroke-width="1.535"/>
  <path d="m95.75 32.26c-30.74 9.95-52.79 33.78-61.97 64.13l-1.88 8.62" opacity=".3" stroke="#fff" stroke-miterlimit="10" stroke-width="1.535"/>
  <path d="m11.72 59.24h30.06l14.36-19.84" opacity=".3" stroke="#fff" stroke-miterlimit="10" stroke-width="1.535"/>
  <path d="m11.72 61.51h30.06l24.49 26.39-0.87 21.8" opacity=".3" stroke="#fff" stroke-miterlimit="10" stroke-width="1.535"/>
  <path d="m11.72 134h20.68c1.88 9.95 5.13 19.98 10.21 31.39" opacity=".3" stroke="#fff" stroke-miterlimit="10" stroke-width="1.535"/>
  <path d="m46.62 142.9c-9.09-26.89 0.36-61.29 23.44-79.52 6.88-5.24 13.76-10.2 20.64-16.1" opacity=".3" stroke="#fff" stroke-miterlimit="10" stroke-width="1.535"/>
  <path d="m236 133.3c-3.33 1.45-4.08 9.61 1.62 10.23v-10.97c-0.5 0-1.12 0.36-1.62 0.74z" fill="#fff" opacity=".3"/>
  <path d="m200.1 48.06c3.39 0 2.87-2.71 2.87-4.32 0-2.83-2.38-3.97-3.9-3.88-2.88 0.13-3.56 2.45-3.48 3.96 0.17 2.49 1.81 4.24 4.51 4.24z" fill="#fff" opacity=".3"/>
  <path d="m56.92 42.87c5.06 0 4.19-7.64-0.53-7.22-4.48 0.42-4.22 7.22 0.53 7.22z" fill="#fff" opacity=".3"/>
  <path d="m208.7 59.24c4.35-0.51 2.88-7.23-1.12-6.04-3.61 1.08-2.8 6.53 1.12 6.04z" fill="#fff" opacity=".3"/>
  <path d="m183.6 36.64c3.17 0 3.17-5.93-0.04-5.68-3.29 0.25-3.42 5.68 0.04 5.68z" opacity=".3" stroke="#fff" stroke-miterlimit="10" stroke-width="1.535"/>
  <path d="m225.2 186.5c3.16 0 3.16-5.35-0.04-5.01-2.93 0.3-3.02 5.01 0.04 5.01z" opacity=".3" stroke="#fff" stroke-miterlimit="10" stroke-width="1.535"/>
  <path d="m223.8 149.3c2.7 0 2.4-4.2-0.09-3.67-2.14 0.46-2.1 3.67 0.09 3.67z" fill="#fff" opacity=".3"/>
  <path d="m199.6 177.6c4.27 0 3.69-6.56-0.3-5.52-3.29 0.91-2.7 5.52 0.3 5.52z" opacity=".3" stroke="#fff" stroke-miterlimit="10" stroke-width="1.535"/>
  <path d="m175.9 154.4c4.62 0 3.66-7.43-0.33-6.65-3.46 0.7-3.21 6.65 0.33 6.65z" opacity=".3" stroke="#fff" stroke-miterlimit="10" stroke-width="1.535"/>
  <path d="m32.73 106.3c-2.42 2.42 0.55 6.86 3.12 6.04 4.06-1.37 2.64-6.82-0.77-6-0.96 0.25-1.7-0.62-2.35-0.04z" opacity=".3" stroke="#fff" stroke-miterlimit="10" stroke-width="1.535"/>
  <path d="m12.22 71.93c9.54 0 15.94 8.78 15.16 16.51-0.96 9.1-8.77 13.97-15.32 13.72" opacity=".3" stroke="#fff" stroke-miterlimit="10" stroke-width="4.606"/>
  <path d="m65.36 116.9c4.7 0.58 5.33-6.8 0.82-7.18-4.95-0.42-5.2 6.64-0.82 7.18z" opacity=".3" stroke="#fff" stroke-miterlimit="10" stroke-width="1.535"/>
  <path d="m124.8 193.1c23.51 0 55.53-1.92 55.53-3.48 0-2.55-26.66-3.47-55.45-3.47-28.78 0-46.71 1.12-49.82 2.15-6.93 2.36-6.19 2.88-1.29 3.7 7.26 1.27 31.09 1.1 51.03 1.1z" fill="url(#paint2_linear_103_1723)"/>
  <path d="m124.9 14.16c-9.26 0-14.79 5.88-14.79 12.56 0 5.66 4.6 10.46 9.04 12.02v4.38h9.01v-4.42c5.53-1.97 9.58-6.58 9.58-12.36 0-6.3-4.71-12.18-12.84-12.18z" fill="url(#paint3_radial_103_1723)"/>
  <path d="m124.6 20.04c-5.36 0-7.24 4.71-7.24 7.13 0 3.7 2.53 6.54 4.68 7.49v7.05h4.86v-7.01c2.97-1.12 4.49-4.09 4.49-7.01 0-3.74-2.7-7.65-6.79-7.65z" fill="#114A78"/>
  <path d="m124.2 30.44c3.14 0 4.55-2.62 4.55-4.18 0-2.53-1.83-4.25-4-4.25-2.88 0-4.48 2.15-4.48 4.08 0 2.21 1.38 4.35 3.93 4.35z" fill="url(#paint4_linear_103_1723)" stroke="#0197DD" stroke-miterlimit="10" stroke-width="1.03"/>
  <path d="m115.2 44.21c1.61-3.1 4.9-4.94 9.44-4.94s7.83 1.84 9.44 4.94h-18.88z" fill="#0B9BDE" stroke="#003269" stroke-miterlimit="10" stroke-width="2.06"/>
  <path d="m131.7 44.55c16.48 2.06 30.17 11.46 35.44 27.17 6.65 0 7.81 5.44 7.81 12.2s-1.65 10.41-7.04 10.99c-2.44 7.56-7.67 12.8-18.11 15.22-3.53-0.95-10.75 0.34-24.93 0.34-14.19 0-22.62-1.29-24.97-1.29-8.47-2.07-15.31-7.06-17.88-15.06-6.31-0.74-7.82-5.4-7.82-9.61 0-6.02 1.42-12.32 8.26-12.92 4.54-14.28 15.44-24.68 32.67-27.06 3.05-0.54 11.98-0.54 16.57 0.02z" fill="#F0FBFF" stroke="#003269" stroke-miterlimit="10" stroke-width="2.06"/>
  <path d="m82.12 74.18c-3.41 0.74-5.29 3.4-5.29 10.25 0 4.62 1.51 7.32 3.94 7.9l1.35-18.15z" fill="#38C4F2" stroke="#003269" stroke-miterlimit="10" stroke-width="2.06"/>
  <path d="m167.6 73.72c4.14 0 5.36 3.4 5.36 10.29 0 6.22-1.76 9.1-5.32 9.6l-1.38-19.89h1.34z" fill="#38C4F2" stroke="#003269" stroke-miterlimit="10" stroke-width="2.06"/>
  <path d="m124.9 47.31c7.95 0 15.77 0.87 16.39 0.41-1.22 4.2-4.19 6.27-8.44 6.27h-16.79c-4.86 0-6.88-1.98-8.4-5.89 1.26-0.46 6.49-0.79 17.24-0.79z" fill="#88F1FF" stroke="#0094BA" stroke-miterlimit="10" stroke-width="1.03"/>
  <path d="m124.8 59.28c17.49 0 26.18 3.7 28.92 7.05 4.3 5.19 6.22 12.2 6.22 18.92 0 9.62-4.7 15.73-13.75 17.66-7.37 1.65-12.16 2.15-21.17 2.15-7.95 0-18.94-1.75-23.88-3.54-7.95-2.84-11.62-7.79-11.62-15.74 0-7.38 2.61-16.04 8.92-20.25 4.94-3.2 13.63-6.25 26.36-6.25z" fill="url(#paint5_linear_103_1723)" stroke="#003269" stroke-miterlimit="10" stroke-width="2.06"/>
  <path d="m100.8 109.7c-0.54 4.44 8.99 8.01 23.09 8.01s24.13-3.44 24.13-8.01h-47.22z" fill="#0B9BDE" stroke="#003269" stroke-miterlimit="10" stroke-width="2.06"/>
  <path d="m156.1 157.8c5.62-0.46 9.43 0.41 9.81 9.51 0.29 6.89 0.2 10.95-0.3 15.57-0.5 4.7-3.47 6.54-9.55 6.54-6.71 0-9.37-3.35-9.74-7.33-0.38-4.36-0.12-11.16 0.74-15.73 0.73-3.95 3.26-8.11 9.04-8.56z" fill="#0B4871" stroke="#003269" stroke-miterlimit="10" stroke-width="2.06"/>
  <path d="m149.5 166.6 13.24 0.42" stroke="#003269" stroke-miterlimit="10" stroke-width="1.03"/>
  <path d="m149.5 174 13.24 0.42" stroke="#003269" stroke-miterlimit="10" stroke-width="1.03"/>
  <path d="m150 181.3 11.67-0.25" stroke="#003269" stroke-miterlimit="10" stroke-width="1.03"/>
  <path d="m91.27 157.3c-5.35 0-7.45 2.53-7.75 9.97-0.25 6.47-0.29 10.17 0 14.32 0.34 5.45 3.17 7.79 9.7 7.79 5.49 0 8.37-2.8 8.87-8.34 0.42-4.95-0.54-11.46-1.76-15.06-1.27-3.99-3.88-8.68-9.06-8.68z" fill="#0B4871" stroke="#003269" stroke-miterlimit="10" stroke-width="2.06"/>
  <path d="m86.73 167.8 11.67-0.41" stroke="#003269" stroke-miterlimit="10" stroke-width="1.03"/>
  <path d="m86.73 175.1 11.67-0.42" stroke="#003269" stroke-miterlimit="10" stroke-width="1.03"/>
  <path d="m87.15 181.6 10.44-0.25" stroke="#003269" stroke-miterlimit="10" stroke-width="1.03"/>
  <path d="m82.51 115.1c-5.39 2.97-6.7 8.81-8.43 11.1-2.02 2.84-4.76 4.51-5.34 7.52l6.31 5.44c1.17-2.06 2.64-4.86 3.76-6.37 2.3 2.3 4.87 4.05 9.32 4.31l1.08-20.12-6.7-1.88z" fill="url(#paint6_linear_103_1723)" stroke="#003269" stroke-miterlimit="10" stroke-width="2.06"/>
  <path d="m163.9 114.6c5.35 0.58 7.7 3.51 8.86 5.02l5.08-3.56 1.77 7.6c-2.61 2.15-5.31 3.98-8.71 3.98-1.38 1.23-4.2 5.77-7.17 6.02l-3.62-15.88 3.79-3.18z" fill="url(#paint7_linear_103_1723)" stroke="#003269" stroke-miterlimit="10" stroke-width="2.06"/>
  <path d="m149.9 110.2c7.95 0 14.04 7.05 14.04 19.34 0 9.53-3.83 26.1-7.83 35.63-3.4 6.1-13.59 14.64-32.9 14.64-16.56 0-25.61-7.96-30.15-14.64-4.25-7.95-7.45-20.73-7.45-35.63 0-9.88 6.54-19.34 12.64-19.34 1.97 0 1.76 5.45 10.99 7.19 5.02 1 8.56 1.42 14.46 1.42 6.5 0 9.38-0.66 13.92-1.42 9-1.61 9.5-7.19 12.28-7.19z" fill="#F0FBFF" stroke="#003269" stroke-miterlimit="10" stroke-width="2.06"/>
  <path d="m157.7 155.3c-2.92 0-6.67-3.31-9.68-9.24l-2.92 2.02c-2.38 1.52-4.91 1.69-11.07 1.69h-19.98c-6.27 0-9.36-0.96-11.29-3.75-3.18 5.93-5.97 9.37-10.55 9.37l2.53 9.01c2.05 1.8 10.66 4.41 27.71 4.41 13.68 0 28.24-2.76 31.03-4.41l4.22-9.1z" fill="url(#paint8_linear_103_1723)" stroke="#87B9D6" stroke-miterlimit="10" stroke-width="2.06"/>
  <path d="m107.1 126.9h34.67c4.35 0 5.87 3.7 5.53 8.02l-0.96 9.69c-0.42 3.69-3.03 4.79-7.97 4.79h-28.26c-4.94 0-7.55-2.19-7.97-6.3l-0.63-9.36c-0.25-4.03 1.89-6.84 5.59-6.84z" fill="url(#paint9_linear_103_1723)" stroke="#0094BA" stroke-miterlimit="10" stroke-width="2.06"/>
  <path d="m106.3 132.7 4.71-0.04" stroke="#44C7F4" stroke-miterlimit="10" stroke-width="2.06"/>
  <path d="m106.3 137.1 4.71-0.04" stroke="#44C7F4" stroke-miterlimit="10" stroke-width="2.06"/>
  <path d="m106.3 141.4 4.71-0.04" stroke="#44C7F4" stroke-miterlimit="10" stroke-width="2.06"/>
  <path d="m138.7 132.7 4.71-0.04" stroke="#44C7F4" stroke-miterlimit="10" stroke-width="2.06"/>
  <path d="m138.7 137.1 4.71-0.04" stroke="#44C7F4" stroke-miterlimit="10" stroke-width="2.06"/>
  <path d="m138.7 141.4 4.71-0.04" stroke="#44C7F4" stroke-miterlimit="10" stroke-width="2.06"/>
  <path d="m115.7 156.2h15.37c1.97 0 2.59 1.42 2.38 2.94-0.25 1.65-1.2 2.23-3.04 2.23h-12.27c-1.98 0-2.8-0.95-2.8-2.55 0-1.52 0.36-2.62 0.36-2.62z" fill="url(#paint10_linear_103_1723)" stroke="#00649E" stroke-miterlimit="10" stroke-width="1.535"/>
  <path d="m115.4 131.9 4.59-0.05 4.87 8.54 4.94-8.58 3.9 0.04-0.3 14.03-3.6 0.04-0.46-9.23-4.18 8-2.15 0.04-4.43-8.08-0.58 9.27h-3.1l0.5-14.02z" fill="#88F1FF"/>
  <path d="m64.17 130.9c-10.11 1.29-14.96 12.98-14.22 23.38 0.34 4.66 3.08 8.31 10.3 9.05 6.76 0.7 10.66-1.54 13.96-6.24 3.45-4.99 4.83-9.4 4.45-14.05-4.94-0.96-7.43-13.05-14.49-12.14z" fill="#F0FBFF" stroke="#003269" stroke-miterlimit="10" stroke-width="2.06"/>
  <path d="m53.61 158c-1.18 3.1-2.48 8.5-0.83 11.43 1.13 2.19 4.93 3.47 5.43-0.35 0.13 2.61 0.91 6.09 3.87 5.92 3.2-0.17 2.74-4.79 2.44-7.45 2.19-0.34 3.1-1.29 4.01-2.37 1.48 2.65 3.13 6.92 5.74 6.02 3.35-1.18 2.22-6.67-0.06-9.64l-3.06-3.65-8.52-1.84-9.02 1.93z" fill="url(#paint11_linear_103_1723)" stroke="#003269" stroke-miterlimit="10" stroke-width="2.06"/>
  <path d="m55.76 160.4c0.62 3.48 4.2 4.35 5.97 3.69-1.52-1.18-3.62-4.06-3.83-6.11-1.27-0.34-2.57 0-2.14 2.42z" fill="#38C4F2"/>
  <path d="m60.84 170.1 0.34 2.93c0.25 0.95 1.73 1.37 2.03-0.47l0.12-4.01-2.49-0.26v1.81z" fill="#38C4F2"/>
  <path d="m75.72 145c-0.69 5.97-1.75 11.08-4.49 13.88l2.7 2.11c3.41-4.32 5.19-9.9 4.69-15.99h-2.9z" fill="#B8D7E0"/>
  <path d="m62.8 138.6-0.82 2.11-2.27 0.25-1.39 2.7 0.3 1.99-1.08 1.42 1.08 1.89-0.3 1.6 2.02 0.48 0.58 1.18 2.49-0.55 1.87 0.55 1.22-1.97 1.78-0.55 0.54-2.34 0.86-1.28-1.47-1.52-0.3-2.19-2.48-1.14-0.91-2.5-1.72-0.13z" fill="#3182B0" stroke="#3182B0" stroke-miterlimit="10" stroke-width=".5151"/>
  <path d="m63.54 147.7c1.35 0 2.01-1.22 2.01-2.17 0-1.29-1.03-2.19-2.03-2.19-1.31 0-2.13 1.1-2.13 2.1 0 1.25 1 2.26 2.15 2.26z" fill="#F0FBFF"/>
  <path d="m183.7 94.08c-4.62 4.54-8.37 12.83-8.37 17.08 0 2.06 2.97 3.58 2.97 5.09 0 2.97-0.17 8.71 7.78 9.01 9.53 0.33 19.07-14.17 19.07-21.46 0-1.52-0.91-1.89-0.91-3.12 0-1.8 7.69-5.5 7.99-8.88 0.21-2.34-2.14-3.48-4.33-2.06l-1.76 1.18c1.26-2.6 2.82-4.71 2.19-6.54-0.77-2.3-3.93-2.09-5.53 0.71l-2.06 3.06c0.86-2.93 1.16-7.14-2.41-8.04-3.25-0.87-5.4 5.97-6.35 10.6-1.78-0.68-3.16-5.13-7.14-4.67-3.69 0.46-2.74 5.41-1.14 8.04z" fill="url(#paint12_linear_103_1723)" stroke="#003269" stroke-miterlimit="10" stroke-width="2.06"/>
  <path d="m202.7 105c-7.67 0.73-15.71-3.97-18.45-7.8-2.15 2.43-5.35 8.23-5.35 13.03 0 3.1 0.69 6.57 1.15 8 1.05 3.3 2.39 5 6.56 4.88 8.17-0.26 15.84-12.38 16.09-18.11z" fill="url(#paint13_linear_103_1723)" stroke="#003269" stroke-miterlimit="10" stroke-width="2.06"/>
  <path d="m188.6 107.7-1.47 0.38-0.73 1.97-1.57 0.95-0.12 1.84 1.12 1.24-0.08 1.92 1.32 1 0.63 1.75 1.83 0.13 1.22 1.27 1.67-0.87 1.52-0.25 0.58-1.98 1.3-1.08-0.17-1.77 0.77-1.51-1.3-1.42-0.34-2.07-1.86-0.62-1.22-1.28-1.92 0.3-1.18 0.1z" fill="#3182B0" stroke="#3182B0" stroke-miterlimit="10" stroke-width=".5151"/>
  <path d="m190 115.3c1.39 0.46 2.57-0.64 2.94-1.77 0.55-1.66-0.67-3.13-1.89-3.51-1.6-0.54-2.9 0.7-3.28 1.8-0.58 1.71 0.77 3.05 2.23 3.48z" fill="#88D6F1"/>
  <path d="m100.2 83.22c-1.13-6.43 2.07-10.48 7.21-10.48 4.95 0 7.65 3.88 7.31 10.18-0.09 1.27-1.65 1.52-2.47 1.18-0.62-0.29-0.75-1.01-0.75-3.07 0-2.54-1.69-4.32-4.17-4.32-3.25 0-4.16 2.24-4.16 5.67 0 1.6-0.67 1.81-1.8 1.81-0.78 0-1.05-0.38-1.17-0.97z" fill="#88F1FF"/>
  <path d="m134.4 82.21c-0.82-6.2 2.67-10.49 8.12-10.49 5.71 0 8.23 4.36 7.9 10.7-0.09 1.27-0.67 1.56-1.67 1.44-1.1-0.17-1.35-1.13-1.48-3.38-0.21-2.8-1.63-4.77-4.6-4.77-3.16 0-4.54 2.3-4.66 5.23-0.09 1.69-0.43 2.37-1.73 2.37-1.13 0-1.76-0.39-1.88-1.1z" fill="#88F1FF"/>
  <path d="m117 88.93c2.05 2.84 4.11 4.01 7.27 4.01 3.49 0 5.37-2.02 6.84-4.01" stroke="#88F1FF" stroke-linecap="round" stroke-linejoin="round" stroke-width="3.091"/>
  <path d="m105.6 78.82c0.77 0 1.19-0.54 1.19-1.21 0-0.86-0.62-1.24-1.21-1.24-0.81 0-1.27 0.64-1.27 1.24 0 0.71 0.5 1.21 1.29 1.21z" fill="#003269"/>
  <path d="m141.8 78.82c0.77 0 1.19-0.54 1.19-1.21 0-0.86-0.63-1.24-1.22-1.24-0.81 0-1.27 0.64-1.27 1.24 0 0.71 0.5 1.21 1.3 1.21z" fill="#003269"/>
  <path d="m185.1 87.13c-1.18 1.28 0.65 4.99 2.13 7.2l2.01-2.3c-1.04-2.84-2.42-6.45-4.14-4.9z" fill="#0B9BDE"/>
  <path d="m204.9 85.22-3.91 5.7 1.92 1.11 3.34-4.81c0.86-1.47-0.1-3.3-1.35-2z" fill="#0B9BDE"/>
  <path d="m193.1 89.78c3.49-0.77 7.77 1.76 9.6 5.46 1.43 3.14 0.97 7.54 0 8.12-4.94 0.7-12.02-3.19-14.21-7.36 0.67-1.18 1.62-5.59 4.61-6.22z" fill="url(#paint14_linear_103_1723)" stroke="#00649E" stroke-miterlimit="10" stroke-width="1.535"/>
  <path d="m196.1 83.01-2.15 5.92 1.83 0.38 2.35-4.99c0.62-1.8-0.68-3.9-2.03-1.31z" fill="#0B9BDE"/>
  <path d="m192 95.07c1.87-0.99 1.7-3.19 0.32-3.74-1.51-0.66-3.25 0.85-3.03 2.18 0.25 1.31 1.43 2.26 2.71 1.56z" fill="#003269"/>
  <path d="m83.73 117.8c-2.62 1.1-4.17 4.84-3.5 8.4 0.46 2.43 1.84 4.08 3.45 4.99l0.5-13.83-0.45 0.44z" fill="#0B9BDE"/>
  <path d="m166.1 117.7c2.35-0.42 4.32 1.51 4.62 3.58 0.42 2.3-0.63 4.79-3.1 6.3l-1.52-9.88z" fill="#0B9BDE"/>
  <path d="m95.28 202.4v22.99h-2.44 0.55v-14.21l-6.9 11.89h-2.58l-6.87-11.59-0.05 13.91h-4.99v-22.99h4.42l8.86 14.46 8.68-14.46h1.32z" fill="#fff"/>
  <path d="m120.5 207.8-7.91 18.75c-1.87 4.7-4.47 5.98-7.96 5.98-1.88 0-3.94-0.62-5.13-1.71l1.97-3.61c0.87 0.82 2.05 1.32 3.2 1.32 1.56 0 2.43-0.77 3.25-2.75l0.08-0.21-7.53-17.77h5.31l5.11 12.22 5.14-12.22h4.47z" fill="#fff"/>
  <path d="m142.1 216.1c0 5.53-3.79 8.97-8.83 8.97-2.47 0-4.53-0.82-5.91-2.56v2.27h-4.75v-23.77h5.08v8.86c1.43-1.6 3.38-2.38 5.75-2.38 4.95 0 8.66 3.38 8.66 8.61zm-5.13 0c0-3.05-2.02-4.93-4.67-4.93-2.66 0-4.67 1.88-4.67 4.93s2.01 4.94 4.67 4.94c2.65 0 4.67-1.89 4.67-4.94z" fill="#fff"/>
  <path d="m143.5 216.1c0-5.23 4.04-8.78 9.72-8.78 5.67 0 9.67 3.55 9.67 8.78s-4 8.84-9.67 8.84c-5.68 0-9.72-3.65-9.72-8.84zm14.31-0.08c0-3.05-2.06-4.94-4.67-4.94s-4.71 1.89-4.71 4.94 2.1 4.93 4.71 4.93 4.67-1.88 4.67-4.93z" fill="#fff"/>
  <path d="m178.3 224c-1.05 0.78-2.66 1.15-4.35 1.15-4.44 0-6.87-2.23-6.87-6.63v-14.34h4.81v3.93h4.94v3.83h-4.94v6.49c0 1.47 0.86 2.29 2.2 2.29 0.77 0 1.51-0.25 2.13-0.67l2.08 3.95z" fill="#fff"/>
  <defs>
    <linearGradient id="paint0_linear_103_1723" x1="124.4" x2="124.4" y1="4.668" y2="244.3" gradientUnits="userSpaceOnUse">
      <stop stop-color="#E6F8FF" offset="0"/>
      <stop stop-color="#24B5F2" offset="1"/>
    </linearGradient>
    <linearGradient id="paint1_linear_103_1723" x1="125" x2="125" y1="7.268" y2="241.2" gradientUnits="userSpaceOnUse">
      <stop stop-color="#E6F8FF" offset="0"/>
      <stop stop-color="#24B5F2" offset="1"/>
    </linearGradient>
    <linearGradient id="paint2_linear_103_1723" x1="124.3" x2="124.3" y1="186.2" y2="193.5" gradientUnits="userSpaceOnUse">
      <stop stop-color="#54BCE6" offset="0"/>
      <stop stop-color="#0B9BDE" offset="1"/>
    </linearGradient>
    <radialGradient id="paint3_radial_103_1723" cx="0" cy="0" r="1" gradientTransform="translate(124.9 26.94) scale(14.62 14.64)" gradientUnits="userSpaceOnUse">
      <stop stop-color="#88F1FF" offset="0"/>
      <stop stop-color="#88F1FF" stop-opacity=".25" offset="1"/>
    </radialGradient>
    <linearGradient id="paint4_linear_103_1723" x1="124.5" x2="124.5" y1="21.49" y2="30.96" gradientUnits="userSpaceOnUse">
      <stop stop-color="#00E6FF" offset="0"/>
      <stop stop-color="#0197DD" offset="1"/>
    </linearGradient>
    <linearGradient id="paint5_linear_103_1723" x1="124.7" x2="124.7" y1="58.25" y2="106.1" gradientUnits="userSpaceOnUse">
      <stop stop-color="#00B0E1" offset="0"/>
      <stop stop-color="#003269" offset="1"/>
    </linearGradient>
    <linearGradient id="paint6_linear_103_1723" x1="78.97" x2="78.97" y1="114.5" y2="139.8" gradientUnits="userSpaceOnUse">
      <stop stop-color="#38C4F2" offset="0"/>
      <stop stop-color="#00649E" offset="1"/>
    </linearGradient>
    <linearGradient id="paint7_linear_103_1723" x1="169.9" x2="169.9" y1="114.2" y2="128.3" gradientUnits="userSpaceOnUse">
      <stop stop-color="#38C4F2" offset="0"/>
      <stop stop-color="#00649E" offset="1"/>
    </linearGradient>
    <linearGradient id="paint8_linear_103_1723" x1="125" x2="125" y1="144.8" y2="169.8" gradientUnits="userSpaceOnUse">
      <stop stop-color="#F0FBFF" offset="0"/>
      <stop stop-color="#B8D7E0" offset="1"/>
    </linearGradient>
    <linearGradient id="paint9_linear_103_1723" x1="124.5" x2="124.5" y1="125.9" y2="150.4" gradientUnits="userSpaceOnUse">
      <stop stop-color="#38C4F2" offset="0"/>
      <stop stop-color="#0094BA" offset="1"/>
    </linearGradient>
    <linearGradient id="paint10_linear_103_1723" x1="124.4" x2="124.4" y1="155.7" y2="162" gradientUnits="userSpaceOnUse">
      <stop stop-color="#00E6FF" offset="0"/>
      <stop stop-color="#0197DD" offset="1"/>
    </linearGradient>
    <linearGradient id="paint11_linear_103_1723" x1="63.5" x2="63.5" y1="156.5" y2="175.5" gradientUnits="userSpaceOnUse">
      <stop stop-color="#00649E" offset="0"/>
      <stop stop-color="#0197DD" offset="1"/>
    </linearGradient>
    <linearGradient id="paint12_linear_103_1723" x1="195.1" x2="195.1" y1="79.17" y2="125.6" gradientUnits="userSpaceOnUse">
      <stop stop-color="#00649E" offset="0"/>
      <stop stop-color="#0197DD" offset="1"/>
    </linearGradient>
    <linearGradient id="paint13_linear_103_1723" x1="190.8" x2="190.8" y1="96.63" y2="123.4" gradientUnits="userSpaceOnUse">
      <stop stop-color="#F0FBFF" offset="0"/>
      <stop stop-color="#B8D7E0" offset="1"/>
    </linearGradient>
    <linearGradient id="paint14_linear_103_1723" x1="195.7" x2="195.7" y1="89.53" y2="103.5" gradientUnits="userSpaceOnUse">
      <stop stop-color="#00649E" offset="0"/>
      <stop stop-color="#0197DD" offset="1"/>
    </linearGradient>
  </defs>
</svg>